<?xml version="1.0" encoding="utf-8"?>
<!-- Generator: Adobe Illustrator 26.0.1, SVG Export Plug-In . SVG Version: 6.00 Build 0)  -->
<svg version="1.1" id="Layer_1" xmlns="http://www.w3.org/2000/svg" xmlns:xlink="http://www.w3.org/1999/xlink" x="0px" y="0px"
	 viewBox="0 0 700 700" style="enable-background:new 0 0 700 700;" xml:space="preserve">
<g>
	<path d="M51.7,105.6c-4.8,0.5-8.4,4.7-7.9,9.5c0.5,4.8,4.7,8.4,9.5,7.9h593.6c2.3,0,4.6-0.9,6.3-2.5c1.7-1.6,2.6-3.9,2.6-6.2
		s-0.9-4.6-2.6-6.2c-1.7-1.6-3.9-2.5-6.3-2.5H53.4C52.8,105.5,52.3,105.5,51.7,105.6L51.7,105.6z M51.7,341.3
		c-4.8,0.5-8.4,4.7-7.9,9.5c0.5,4.8,4.7,8.4,9.5,7.9h52.4c2.3,0,4.6-0.9,6.3-2.5c1.7-1.6,2.6-3.9,2.6-6.2s-0.9-4.6-2.6-6.2
		c-1.7-1.6-3.9-2.5-6.3-2.5H53.4C52.8,341.2,52.3,341.2,51.7,341.3L51.7,341.3z M156.5,341.3c-4.8,0.5-8.4,4.7-7.9,9.5
		c0.5,4.8,4.7,8.4,9.5,7.9h488.8c2.3,0,4.6-0.9,6.3-2.5c1.7-1.6,2.6-3.9,2.6-6.2s-0.9-4.6-2.6-6.2c-1.7-1.6-3.9-2.5-6.3-2.5H158.1
		C157.6,341.2,157,341.2,156.5,341.3L156.5,341.3z M51.7,576.9c-4.8,0.5-8.4,4.7-7.9,9.5c0.5,4.8,4.7,8.4,9.5,7.9h593.6
		c2.3,0,4.6-0.9,6.3-2.5c1.7-1.6,2.6-3.9,2.6-6.2c0-2.3-0.9-4.6-2.6-6.2c-1.7-1.6-3.9-2.5-6.3-2.5H53.4
		C52.8,576.9,52.3,576.9,51.7,576.9L51.7,576.9z"/>
</g>
</svg>
