<?xml version="1.0" encoding="UTF-8"?>
<svg width="84px" height="84px" viewBox="0 0 84 84" version="1.1" xmlns="http://www.w3.org/2000/svg" xmlns:xlink="http://www.w3.org/1999/xlink">
    <!-- Generator: Sketch 54.1 (76490) - https://sketchapp.com -->
    <title>Spinner</title>
    <desc>Created with Sketch.</desc>
    <g id="Loading" stroke="none" stroke-width="1" fill="none" fill-rule="evenodd">
        <g id="Loading---White-theme" transform="translate(-343.000000, -142.000000)" fill="#0062FF">
            <g id="White" transform="translate(224.000000, 134.000000)">
                <g id="component-/-loading-/-large" transform="translate(119.000000, 8.000000)">
                    <path d="M41.6033007,0 C27.5624393,0.000999869065 13.8226411,6.89209746 5.74040687,19.4924474 C2.89849125,23.9238671 1.00825872,28.682244 0,33.5346086 L7.97312407,34.8974301 C8.79852225,31.0529335 10.3139412,27.2874266 12.5638331,23.779886 C18.9023253,13.8991799 29.7577762,7.99995239 41.6033007,7.99895252 C48.1024273,7.99895252 54.4540532,9.83271238 59.9732089,13.3002583 C75.9639093,23.3469427 80.7132322,44.3961862 70.561946,60.2211139 C64.2234538,70.10182 53.3680029,76.0010475 41.5224784,76.0010475 C35.0233518,76.0010475 28.671726,74.1682875 23.1525703,70.7007416 C20.5854506,69.0879528 18.3274764,67.1792027 16.3564215,65.0664794 L10.248273,70.3117925 C12.7244675,72.9924415 15.5734551,75.4131245 18.8204927,77.4538572 C25.8732523,81.8852769 33.7443382,84 41.5224784,84 C55.5633398,84 69.303138,77.1079025 77.3853723,64.5085525 C89.9451643,44.9281166 84.0895856,18.9785147 64.3052864,6.54714264 C57.2525268,2.11572294 49.3814409,0 41.6033007,0 Z" id="Spinner"></path>
                </g>
            </g>
        </g>
    </g>
</svg>