<svg id="Layer_1" data-name="Layer 1" xmlns="http://www.w3.org/2000/svg" viewBox="0 0 1244.45 525.29"><defs><style>.cls-1{stroke:#231f20;stroke-miterlimit:10;}</style></defs><path class="cls-1" d="M308.44,772.58l-5.78,4.56c5.78-4.56-5.94,2.52-13.26,13.34s-5.29,10.66-8.55,21.15,3,12,1.46,18.31,16.43,22.57,16.43,22.57,7.28,6.22,9.95,7.71-7.54,1.45,2.66,1.48,28.71-2.29,32.09-2.56.47-4.76,4.48-7.82,17.41-16,17.41-16l2.1-16.31L351,804.16,349.74,789s1.21-6.05-1.45-7.53-19.25-7-19.25-7l-13-2.5Z" transform="translate(-99.54 -415.7)"/><path class="cls-1" d="M452.06,495.28l.54,6.75,2.69,33.78s-2.83,7,1.76,22-7.16-4.53,4.59,14.93,12.49,7.5,11.75,19.46-14.44,1.15-5.2,25.9,6.73,21.56,11.43,45,7.47-5.7,4.69,23.42-7.31,27.77-4.74,42.86,4.9,14.64,2.35,29.42-11.77,22.32-7.24,38.95,3.12,10,1.4,25.38-2.47,6.05-4.26,26.21,5.17.91-1.79,20.16l-7,19.25,19.66-1.57c14.12-1.12.4,6.77,19-10s13.45,4,18.58-16.78,5.28-19.11,5.48-37.82-7.7-11.37-3.24-40.58,2.65-30.75,4.81-46.22-10.06-19.59-2.56-32.09,6.83-20.94,6.36-48.09-.6-28.85-3.24-40.53-11.48-16.08-12.55-29.59,12.19-28.17,8.3-39.75,2.27-18.94-2.64-38.06a85.89,85.89,0,0,1-1.79-34.67s-2.23-18.51-2-25.33,7.64-22.7-1.75-21.95-11.27-22.9-24.58,2l-13.32,24.86s12.5,7.5,14.73,14.12,7.9-7.43,2.22,6.62-7,15.85-16.27,18.29S452.06,495.28,452.06,495.28Z" transform="translate(-99.54 -415.7)"/><path class="cls-1" d="M568.2,715.44c-1,8.58,8.85,4.39,1.62,20.26s-1.82-1.55-7.23,15.88-3.86,15.52-4.6,27.51-4-8.13-.74,12-1.88,15.45,1.45,27.08,8.25,5.19,12.07,23.21-3.88,6.73,3.82,18-3.37.27,7.7,11.28,9,5.7,21.06,8.32,8.43-.86,20.26-1.62,10-2.69,22-1.75,7.12,4,23.76-.34,19.62-9.72,30.9-17.42,12.7-11.21,17.1-20.06,4.33-30.94,5.48-37.83-9.39-11.14-2.16-27,12.64-33.3,8.45-43.16.07-20.4-12-22.83-18.84-1.9-18.84-1.9c-16.56,26.82-9.33,10.94-16.56,26.82s-11.49,26.32-5.48,37.78-.4-5,6,11.46,22.43-17.09,6.42,16.48l-16,33.57s-8.79-3.64-13.34,3.14-13.89-3.61-20.27,1.62-18.58,1.48-18.58,1.48c-13.33-18-16.55-37-15.37-43.64s-1.73-21.65,2.93-27.12,14-15,13.73-19.07-2.21-27.74-2.21-27.74,11.24-7.69-1.22-15.2c-6.79-4.09-15.19-9.07-21.42-12.75a12.34,12.34,0,0,0-15.8,2.76C575.59,701.26,568.8,710.38,568.2,715.44Z" transform="translate(-99.54 -415.7)"/><path class="cls-1" d="M766.46,708.11l2.23,6.62s6.53,17.92,10.12,20.31-7.22-5.24.88,11.11,9.63,14.13,10.45,24.46S786,783,791.77,791.07s6.58,18.54,8.73,24.13-9.41,9.91,1.4,17.55l10.81,7.63s7.29,6.22,11.21,12.7l3.91,6.49s3.65,3.11,8.45-.67,10.2-21.21,10.2-21.21,6.28-6.55,10.37-19.15,8.21-24.82,9.5-30,1.1-7.49,7.21-16.18,16-13,15.42-19.66-9.94-18.12-2.09-26.27,14.67-29.08,14.67-29.08L866.3,681.45s-13,7.83-13.58,21.48-4,13.65.39,26.18,6.22,14,5.47,26,10-2.45-.74,12,.68,8.45-10.74,14.46l-11.42,6s-14.48-11.13-16.83-19.24-7.5-30.06-8-35.84S807.8,715,805.44,706.7s-6.06-33.24-6.06-33.24c-30.28,3.85-22.11-.2-30.28,3.85s-13.71-22.7-8.17,4.05Z" transform="translate(-99.54 -415.7)"/><path class="cls-1" d="M1105.41,751.84c-11.32-14.13-20.19-18.79-31.19-28.83s-6.74-20.57-28.83-20.51-41.34-6.89-51.34-4.4-23.91-1.49-36.61,9.73-22.05,21.89-21.7,26.23,9.09,7.45,1.17,14.69-1.61,1.12-8.82,17.24-4.91,2.35-7.21,16.13.41,5.06,1.89,23.64,2.13,21.92,1.73,40.65-17.48-3.7-.39,18.73S950.45,897,971,898.78s12.84-9.52,40.53-3.23,26.28,9.8,44.71,6.63,11.35,14.39,18.45-3.18,28.91-21,5.61-36.13-29.18-24.86-40.87-22.23,0-3.39-23.25,5.25-18.12,30-38,14.74-25.25-18.19-30.58-21.15-8.59-15-8.59-15,.69-15.65,3.78-19.59,12.86-13.69,12.86-13.69l37.15-3c17.16,2,18.45-3.17,35.47-2.83s12.17,3.41,32.06-2.92,16-11.72,29.32-15.87S1116.74,766,1105.41,751.84ZM1062,747.06c-1.79,5.81-.59,6.85-9.84,11.55s-16.44-.21-22.87,4.47-14.16,4.16-19.3,5.14-9.68.77-16.44,1.31-9.17-1.37-12.11-2.64-5.79-1.54-7.15-4.58-6.49-3-4.28-10.93-1.47-4.22,2.2-7.91a48.07,48.07,0,0,0,6.64-9s2-3,4.8-3.78,4.41-1.48,10.14-.8,6.7-1.2,17,0,5.7.44,18.92,2.79,15.33.48,21.92,5.05S1063.77,741.26,1062,747.06Z" transform="translate(-99.54 -415.7)"/><path class="cls-1" d="M1149.44,507.52v11.3s6.78,20.33,9,33.88,2.26-9,2.26,13.55v40.66c0,31.63-4.52,27.69,0,62.41s2.26,13.48,0,70.41,0,40.82-11.3,77.11-4.52,6.92-11.29,36.28-2.26-4.51-6.78,29.37-20.33,15.81-4.52,33.88,0,24.85,15.82,18.07,38.4-11.29,38.4-11.29-11.3-9.13,0-26,4.51-26.85,11.29-35.43,13.55-17.61,15.81-26.65-11.29-20.29,0-70,6.78-55.19,11.3-77.3,9-44.7,9-53.73-6.78-36.14-9-49.7-4.52-18.07-6.78-42.91-6.78-49.7-6.78-49.7l-31.67-15.81Z" transform="translate(-99.54 -415.7)"/><path class="cls-1" d="M1269.16,507.52v9s2.26-12.37,0,13-4.52-4-2.26,25.38-.25,22.59,3.26,45.18,1,23.29,0,52.3,3.52-4.87-1,29,2.65,25.89-3.19,48-17.14,31.43-21.66,42.56-9-18.24-4.51,11.13,15.81-2.4,18.07,33.74-15.35,23.6,1.13,25-3.39-15.81,12.42,20.33,2.26,22.59,20.33,49.69,9,31.63,18.07,27.11,11.29-6.78,9-20.33,3.89-14.72.82-30-1.94-35.56.88-46.85,11.86-20.62,9.6-25-9-24.1-9-24.4-13.55-2.24-11.29-20.47,21-36.73,20.69-52.33,6.41-16.55,8.67-31.89-2.26-14.63,0-35.31,8.08-41,.66-52.3-16.47-15.82-16.47-33.89,4.52-40.66,6.78-58.73,2.26-42.91,2.26-42.91-4.52-24.85-20.33-22.59a103.46,103.46,0,0,1-29.37-.15s-6.77,22.74-9,34S1269.16,507.52,1269.16,507.52Z" transform="translate(-99.54 -415.7)"/><path class="cls-1" d="M104.05,850.52l9-25.67c6.78-19.36,9-28.39,9-37.43V758.06l-9-24.85s4.52-20.33,0-27.11-9-18.07-9-18.07c-9-27.1,0-54.21,0-54.21,4.52-22.59,2.77-29.36,7-42.92l4.27-13.55,6.78-11.29,31.62-15.81h20.33s6.77,9,20.33,0-9-13.56,13.55-9,6.78-19.36,33.88-1.77S253.14,550.25,269,557l15.81,6.78s-2.26-2.26,9,15.81-2.26,4.52,11.29,18.07,13.55,2.26,13.55,13.55,11.3-9,0,11.3,4.52,9-11.29,20.33-4.52,6.77-15.81,11.29,0,4.52-11.3,4.52-24.84-4.52-24.84-4.52l-20.33-11.58-23.22-15.52s-19.7-4.52-26.48-2.26-2.26-6.78-6.77,2.26-11.3-6.78-4.52,9l6.77,15.81h0s-38.87-11.77-22.58,4.52c27.1,27.11,27.1,9,27.1,27.11s9-4.52,0,18.07-6.77,2.26-9,22.58-4.52,22.59,2.26,33.89,2.25,20.33,2.25,33.88v13.55s2.26,13.87,4.52,19.36,6.78-5.8,2.26,5.49,9-24.85-4.52,11.29l-13.55,36.14H149.23L126.64,880Z" transform="translate(-99.54 -415.7)"/></svg>